<svg width="103" height="109" viewBox="0 0 103 109" fill="none" xmlns="http://www.w3.org/2000/svg">
<path d="M79.0431 38.0384C79.0636 38.1186 79.074 38.2014 79.0742 38.2845V51.2035C79.0742 51.3693 79.0329 51.5322 78.9543 51.6757C78.8758 51.8191 78.7629 51.9381 78.627 52.0206L68.3807 58.2635V70.6373C68.3807 70.9741 68.2116 71.2849 67.9356 71.4545L46.5474 84.4842C46.4984 84.5136 46.445 84.5324 46.3916 84.5525C46.3716 84.5595 46.3527 84.5725 46.3315 84.5784C46.182 84.62 46.0249 84.62 45.8754 84.5784C45.8509 84.5713 45.8286 84.5572 45.8053 84.5478C45.7563 84.5289 45.7051 84.5124 45.6584 84.4842L24.2746 71.4545C24.1388 71.3719 24.0259 71.2529 23.9474 71.1094C23.8689 70.966 23.8275 70.8031 23.8273 70.6373V31.8803C23.8273 31.7955 23.8385 31.7131 23.8585 31.6331C23.8652 31.606 23.8808 31.5812 23.8897 31.5542C23.9063 31.5047 23.9219 31.4541 23.9464 31.4082C23.9631 31.3775 23.9876 31.3528 24.0076 31.3246C24.0332 31.2869 24.0566 31.248 24.0866 31.2151C24.1122 31.188 24.1456 31.168 24.1745 31.1444C24.2068 31.1161 24.2357 31.0855 24.2724 31.0632H24.2735L34.966 24.5483C35.1013 24.4659 35.2548 24.4225 35.411 24.4225C35.5672 24.4225 35.7207 24.4659 35.8561 24.5483L46.5485 31.0632H46.5507C46.5863 31.0867 46.6164 31.1161 46.6486 31.1432C46.6776 31.1668 46.7098 31.188 46.7354 31.2139C46.7666 31.248 46.7888 31.2869 46.8155 31.3246C46.8345 31.3528 46.86 31.3775 46.8756 31.4082C46.9012 31.4553 46.9157 31.5047 46.9335 31.5542C46.9424 31.5812 46.958 31.606 46.9646 31.6342C46.9851 31.7145 46.9956 31.7972 46.9958 31.8803V56.0876L55.9058 50.6583V38.2833C55.9058 38.2009 55.9169 38.1173 55.9369 38.0384C55.9447 38.0101 55.9592 37.9854 55.9681 37.9583C55.9859 37.9089 56.0015 37.8582 56.026 37.8123C56.0426 37.7817 56.0671 37.757 56.086 37.7287C56.1127 37.691 56.135 37.6522 56.1661 37.6192C56.1917 37.5921 56.224 37.5721 56.2529 37.5486C56.2863 37.5203 56.3152 37.4897 56.3508 37.4673H56.352L67.0455 30.9525C67.1809 30.8699 67.3343 30.8265 67.4906 30.8265C67.6468 30.8265 67.8003 30.8699 67.9356 30.9525L78.6281 37.4673C78.6659 37.4909 78.6948 37.5203 78.7282 37.5474C78.756 37.5709 78.7883 37.5921 78.8139 37.618C78.845 37.6522 78.8673 37.691 78.894 37.7287C78.914 37.757 78.9385 37.7817 78.9541 37.8123C78.9797 37.8582 78.9941 37.9089 79.0119 37.9583C79.0219 37.9854 79.0364 38.0101 79.0431 38.0384V38.0384ZM77.2918 50.6583V39.9152L73.55 42.1948L68.3807 45.3445V56.0876L77.2929 50.6583H77.2918ZM66.5993 70.0922V59.342L61.5146 62.4152L46.9947 71.1848V82.0362L66.5993 70.0922ZM25.6098 33.5111V70.0922L45.2122 82.0351V71.186L34.9715 65.0527L34.9682 65.0503L34.9637 65.048C34.9292 65.0268 34.9003 64.9962 34.868 64.9703C34.8402 64.9467 34.808 64.9279 34.7835 64.902L34.7813 64.8984C34.7523 64.869 34.7323 64.8325 34.7078 64.7995C34.6856 64.7677 34.6589 64.7407 34.6411 64.7077L34.64 64.7041C34.6199 64.6688 34.6077 64.6264 34.5932 64.5864C34.5788 64.5511 34.5598 64.5181 34.5509 64.4804V64.4793C34.5398 64.4345 34.5376 64.3874 34.5331 64.3415C34.5287 64.3062 34.5198 64.2708 34.5198 64.2355V38.9403L29.3516 35.7895L25.6098 33.5123V33.5111ZM35.4121 26.4534L26.5032 31.8803L35.4099 37.3072L44.3177 31.8791L35.4099 26.4534H35.4121ZM40.0451 60.3217L45.2133 57.1732V33.5111L41.4715 35.7906L36.3022 38.9403V62.6024L40.0451 60.3217ZM67.4906 32.8576L58.5828 38.2845L67.4906 43.7114L76.3972 38.2833L67.4906 32.8576ZM66.5993 45.3445L61.43 42.1948L57.6882 39.9152V50.6583L62.8564 53.8068L66.5993 56.0876V45.3445ZM46.1023 69.5541L59.168 61.6604L65.6992 57.716L56.7981 52.2926L46.5496 58.5367L37.209 64.2273L46.1023 69.5541Z" fill="#FF2D20"/>
</svg>
