<svg width="102" height="102" viewBox="0 0 102 102" fill="none" xmlns="http://www.w3.org/2000/svg">
<path d="M36.0376 42.8624H46.7255V43.7078H37.0173V50.0705H46.1465V50.9159H37.0173V57.9016H46.8368V58.7471H36.0376V42.8624ZM47.6829 42.8624H48.8185L53.8507 49.8481L58.9942 42.8624L65.9902 33.9889L54.4964 50.5822L60.4193 58.7471H59.2391L53.8507 51.3164L48.44 58.7471H47.2821L53.2495 50.5822L47.6829 42.8624ZM60.8423 43.7078V42.8624H73.022V43.7078H67.4109V58.7471H66.4312V43.7078H60.8423Z" fill="white"/>
<path d="M22.6667 42.8623H23.8913L40.7785 68.011L33.7999 58.747L23.6909 44.0637L23.6464 58.747H22.6667V42.8623Z" fill="white"/>
<path d="M72.9233 57.6465C73.1259 57.6465 73.2736 57.4922 73.2736 57.2927C73.2736 57.0932 73.1259 56.9389 72.9233 56.9389C72.7232 56.9389 72.5731 57.0932 72.5731 57.2927C72.5731 57.4922 72.7232 57.6465 72.9233 57.6465ZM73.886 56.7157C73.886 57.3046 74.3126 57.6892 74.9345 57.6892C75.597 57.6892 75.9973 57.2927 75.9973 56.6041V54.1797H75.4635V56.6017C75.4635 56.984 75.2705 57.1882 74.9297 57.1882C74.6247 57.1882 74.4174 56.9983 74.4103 56.7157H73.886ZM76.6955 56.6848C76.7336 57.2974 77.2459 57.6892 78.0085 57.6892C78.8234 57.6892 79.3334 57.2784 79.3334 56.6231C79.3334 56.1078 79.0426 55.8229 78.3373 55.659L77.9584 55.5664C77.5104 55.4619 77.3293 55.3218 77.3293 55.0772C77.3293 54.7686 77.6105 54.5667 78.0323 54.5667C78.4326 54.5667 78.709 54.7638 78.7591 55.0796H79.2785C79.2476 54.5026 78.7376 54.0966 78.0394 54.0966C77.2888 54.0966 76.7884 54.5026 76.7884 55.1129C76.7884 55.6163 77.072 55.9155 77.6939 56.0603L78.1371 56.1672C78.5923 56.274 78.7924 56.4307 78.7924 56.6919C78.7924 56.9959 78.4779 57.2167 78.049 57.2167C77.5891 57.2167 77.2698 57.0101 77.2245 56.6848H76.6955Z" fill="white"/>
</svg>
