<svg width="102" height="103" viewBox="0 0 102 103" fill="none" xmlns="http://www.w3.org/2000/svg">
<path d="M48.6799 23.4994C50.085 22.6873 51.9151 22.6836 53.319 23.4994C60.3817 27.5293 67.4466 31.5529 74.5081 35.5853C75.8362 36.3408 76.7247 37.8334 76.7111 39.3788V63.6244C76.721 65.2338 75.7448 66.762 74.3436 67.5004C67.3041 71.5081 60.2682 75.5207 53.2299 79.5284C51.7958 80.3564 49.929 80.2927 48.5396 79.3968C46.4292 78.1613 44.3151 76.932 42.2045 75.6978C41.7732 75.4382 41.287 75.2315 40.9825 74.8092C41.2517 74.4428 41.733 74.3972 42.1242 74.2372C43.0051 73.9543 43.8142 73.5002 44.6235 73.0596C44.8282 72.9182 45.078 72.9724 45.2742 73.099C47.0789 74.1438 48.8676 75.2191 50.6783 76.254C51.0646 76.4792 51.4557 76.1802 51.7859 75.9943C58.6938 72.0518 65.6102 68.1242 72.5169 64.1805C72.7728 64.0562 72.9143 63.7819 72.8935 63.4988C72.8983 55.5007 72.8947 47.5012 72.8959 39.5031C72.9252 39.1819 72.7411 38.8866 72.4535 38.7552C65.4385 34.7658 58.427 30.7703 51.4132 26.7799C51.2916 26.6956 51.1477 26.6503 51.0002 26.6501C50.8528 26.6499 50.7087 26.6947 50.5869 26.7787C43.573 30.7703 36.5628 34.7695 29.549 38.7586C29.2624 38.8903 29.07 39.1807 29.1041 39.5031C29.1054 47.5012 29.1041 55.5007 29.1041 63.5C29.092 63.6382 29.122 63.7767 29.1902 63.8971C29.2584 64.0174 29.3615 64.1138 29.4856 64.1732C31.3573 65.245 33.2314 66.3092 35.1043 67.3773C36.1594 67.9508 37.4549 68.2916 38.6173 67.8522C39.6432 67.4806 40.3623 66.4235 40.3427 65.3236C40.3524 57.3722 40.3379 49.4196 40.35 41.4694C40.3243 41.1164 40.6559 40.8248 40.9958 40.858C41.8951 40.8519 42.7956 40.8457 43.6949 40.8604C44.0703 40.8519 44.3287 41.2319 44.2822 41.5876C44.2786 49.5893 44.2919 57.5913 44.2762 65.593C44.2786 67.7256 43.411 70.0461 41.4576 71.0895C39.0511 72.3484 36.0766 72.0814 33.6992 70.8743C31.641 69.837 29.6769 68.6127 27.6553 67.5014C26.2504 66.7671 25.279 65.2327 25.2889 63.6246V39.3788C25.2742 37.8014 26.1979 36.2817 27.5675 35.5372C34.6058 31.5262 41.6428 27.5122 48.6799 23.4994Z" fill="#8CC84B"/>
<path d="M54.8201 40.2944C57.8898 40.0949 61.176 40.1762 63.9383 41.7033C66.077 42.8735 67.2627 45.3295 67.3005 47.7288C67.2407 48.0524 66.9057 48.231 66.5997 48.2088C65.7091 48.2075 64.8183 48.221 63.9276 48.2026C63.5498 48.2173 63.3302 47.8656 63.2828 47.5283C63.0269 46.3803 62.4069 45.2433 61.3369 44.6896C59.6943 43.8591 57.7897 43.9009 55.9985 43.9182C54.6909 43.9883 53.2848 44.1026 52.177 44.8791C51.3266 45.4672 51.0682 46.6546 51.3718 47.6108C51.658 48.2974 52.4428 48.5189 53.085 48.7231C56.7844 49.7002 60.7046 49.6029 64.3333 50.8887C65.8356 51.4129 67.3053 52.4319 67.8195 54.0203C68.4922 56.1492 68.1973 58.6938 66.6974 60.4029C65.481 61.8093 63.7095 62.5747 61.9425 62.9905C59.5919 63.5198 57.1525 63.5332 54.7654 63.2982C52.5207 63.0398 50.1849 62.4443 48.4521 60.8999C46.9703 59.6007 46.2466 57.5764 46.3184 55.6225C46.3356 55.2926 46.6609 55.0625 46.9739 55.0896C47.8708 55.0823 48.7677 55.0798 49.6646 55.0908C50.0228 55.065 50.2884 55.3776 50.3068 55.7185C50.4723 56.8123 50.8793 57.9603 51.8239 58.6088C53.6467 59.7964 55.9339 59.715 58.0212 59.7483C59.7504 59.6708 61.6915 59.6474 63.1026 58.4933C63.8471 57.835 64.0677 56.7337 63.8665 55.7862C63.6485 54.9863 62.8198 54.6135 62.1082 54.3698C58.4563 53.2033 54.4923 53.6265 50.8757 52.3074C49.4075 51.7834 47.9877 50.7927 47.4236 49.2695C46.6365 47.1137 46.9971 44.4472 48.6543 42.7959C50.27 41.1532 52.6025 40.5206 54.8201 40.2942V40.2944Z" fill="#8CC84B"/>
</svg>
