<svg width="109" height="103" viewBox="0 0 109 103" fill="none" xmlns="http://www.w3.org/2000/svg">
<path d="M54.5 56.5449C57.4485 56.5449 59.8388 54.2862 59.8388 51.5C59.8388 48.7139 57.4485 46.4552 54.5 46.4552C51.5515 46.4552 49.1613 48.7139 49.1613 51.5C49.1613 54.2862 51.5515 56.5449 54.5 56.5449Z" fill="#61DAFB"/>
<path fill-rule="evenodd" clip-rule="evenodd" d="M29.4087 48.8421C28.1997 49.8734 27.7997 50.7747 27.7997 51.5C27.7997 52.2253 28.1997 53.1266 29.4087 54.1579C30.6175 55.189 32.4759 56.2019 34.938 57.0902C39.8488 58.862 46.7645 59.9965 54.5 59.9965C62.2356 59.9965 69.1512 58.862 74.0621 57.0902C76.5242 56.2019 78.3826 55.189 79.5913 54.1579C80.8003 53.1266 81.2004 52.2253 81.2004 51.5C81.2004 50.7747 80.8003 49.8734 79.5913 48.8421C78.3826 47.811 76.5242 46.7981 74.0621 45.9098C69.1512 44.138 62.2356 43.0035 54.5 43.0035C46.7645 43.0035 39.8488 44.138 34.938 45.9098C32.4759 46.7981 30.6175 47.811 29.4087 48.8421ZM33.5494 42.4732C39.0067 40.5042 46.4144 39.325 54.5 39.325C62.5856 39.325 69.9934 40.5042 75.4506 42.4732C78.1726 43.4553 80.5094 44.6696 82.1999 46.1116C83.8901 47.5534 85.0932 49.3712 85.0932 51.5C85.0932 53.6288 83.8901 55.4466 82.1999 56.8884C80.5094 58.3304 78.1726 59.5447 75.4506 60.5268C69.9934 62.4958 62.5856 63.6751 54.5 63.6751C46.4144 63.6751 39.0067 62.4958 33.5494 60.5268C30.8274 59.5447 28.4906 58.3304 26.8002 56.8884C25.1099 55.4466 23.9068 53.6288 23.9068 51.5C23.9068 49.3712 25.1099 47.5534 26.8002 46.1116C28.4906 44.6696 30.8274 43.4553 33.5494 42.4732Z" fill="#61DAFB"/>
<path fill-rule="evenodd" clip-rule="evenodd" d="M44.3902 29.6374C42.8405 29.1637 41.8145 29.287 41.1498 29.6496C40.4851 30.0123 39.8591 30.7903 39.5184 32.2953C39.1778 33.8001 39.1787 35.8274 39.5957 38.2864C40.4272 43.1911 42.8454 49.4178 46.7132 55.7482C50.5809 62.0786 55.0785 67.1709 59.1577 70.3037C61.2029 71.8744 63.0604 72.8888 64.6098 73.3625C66.1594 73.8362 67.1854 73.713 67.8501 73.3503C68.5149 72.9877 69.1408 72.2096 69.4815 70.7046C69.8221 69.1999 69.8212 67.1726 69.4043 64.7135C68.5727 59.8088 66.1546 53.5821 62.2868 47.2517C58.419 40.9213 53.9214 35.829 49.8422 32.6962C47.797 31.1255 45.9395 30.1111 44.3902 29.6374ZM52.2975 29.8415C56.8306 33.323 61.6153 38.7955 65.6581 45.4124C69.7009 52.0293 72.324 58.6811 73.2481 64.1316C73.709 66.8502 73.7646 69.3696 73.2882 71.474C72.812 73.5781 71.7476 75.4716 69.7966 76.5361C67.8456 77.6005 65.578 77.5248 63.4115 76.8625C61.2448 76.2001 58.9635 74.8949 56.7025 73.1584C52.1693 69.6769 47.3847 64.2044 43.3418 57.5875C39.299 50.9706 36.6759 44.3188 35.7518 38.8683C35.2909 36.1498 35.2354 33.6303 35.7117 31.5259C36.188 29.4218 37.2523 27.5283 39.2034 26.4639C41.1544 25.3995 43.4219 25.4752 45.5884 26.1375C47.7552 26.7998 50.0364 28.105 52.2975 29.8415Z" fill="#61DAFB"/>
<path fill-rule="evenodd" clip-rule="evenodd" d="M69.4815 32.2953C69.1409 30.7903 68.5149 30.0123 67.8502 29.6496C67.1855 29.2869 66.1594 29.1637 64.6098 29.6374C63.0604 30.1111 61.2029 31.1255 59.1578 32.6962C55.0785 35.829 50.581 40.9213 46.7132 47.2517C42.8454 53.5821 40.4273 59.8088 39.5957 64.7135C39.1788 67.1726 39.1779 69.1998 39.5185 70.7046C39.8591 72.2096 40.4851 72.9876 41.1498 73.3503C41.8146 73.713 42.8406 73.8362 44.3902 73.3625C45.9396 72.8888 47.7971 71.8744 49.8423 70.3037C53.9215 67.1709 58.419 62.0786 62.2868 55.7482C66.1546 49.4178 68.5727 43.1911 69.4043 38.2864C69.8212 35.8273 69.8221 33.8001 69.4815 32.2953ZM73.2481 38.8683C72.324 44.3188 69.7009 50.9706 65.6581 57.5875C61.6153 64.2044 56.8307 69.6769 52.2975 73.1584C50.0365 74.8949 47.7552 76.2001 45.5884 76.8624C43.4219 77.5247 41.1544 77.6005 39.2034 76.536C37.2524 75.4716 36.188 73.5781 35.7117 71.474C35.2354 69.3696 35.291 66.8502 35.7519 64.1316C36.676 58.6811 39.2991 52.0293 43.3419 45.4124C47.3847 38.7955 52.1693 33.323 56.7025 29.8415C58.9635 28.105 61.2448 26.7998 63.4116 26.1374C65.5781 25.4751 67.8456 25.3994 69.7966 26.4639C71.7476 27.5283 72.812 29.4218 73.2883 31.5259C73.7646 33.6303 73.7091 36.1497 73.2481 38.8683Z" fill="#61DAFB"/>
</svg>
