<svg width="100" height="103" viewBox="0 0 100 103" fill="none" xmlns="http://www.w3.org/2000/svg">
<path d="M50 34.338C42.5924 34.338 37.9629 38.1519 36.1108 45.7789C38.8889 41.965 42.1297 40.5353 45.8332 41.4885C47.9465 42.0323 49.4567 43.6115 51.1289 45.3588C53.8521 48.2053 57.004 51.4996 63.8892 51.4996C71.2962 51.4996 75.9264 47.6858 77.7778 40.0581C75.0004 43.8719 71.7596 45.3023 68.0554 44.3492C65.9428 43.8054 64.4325 42.2262 62.7603 40.4788C60.0371 37.6324 56.8845 34.338 50 34.338V34.338ZM36.1108 51.4996C28.7038 51.4996 24.0736 55.3135 22.2222 62.9412C24.9997 59.1273 28.2405 57.697 31.9446 58.6508C34.0572 59.1953 35.5675 60.7738 37.2397 62.5205C39.9629 65.3669 43.1155 68.662 50 68.662C57.4076 68.662 62.0372 64.8481 63.8892 57.2204C61.1111 61.0343 57.8703 62.4646 54.1668 61.5108C52.0536 60.9677 50.5433 59.3878 48.8711 57.6412C46.1479 54.7947 42.996 51.4996 36.1108 51.4996V51.4996Z" fill="#06B6D4"/>
</svg>
